<svg height="3.1in" viewBox="0 0 222.32 222.84" width="3.09in" xmlns="http://www.w3.org/2000/svg"><path d="m131.63 127.42c-7.63 0-14.62-3.2-16.77-10.25l6.98-2.73c1.58 4.01 5.37 6.29 10.03 6.29 4.19 0 8.16-1.63 8.16-5.48 0-9.67-22.67-2.33-22.67-18.34 0-7.81 6.46-12.35 14.51-12.35 6.92 0 13.21 2.8 15.08 8.86l-6.71 2.62c-1.63-3.5-4.66-4.95-8.67-4.95-3.38 0-6.65 1.81-6.65 5.53 0 2.91 2.8 3.96 6.06 4.83 6.69 1.8 16.6 2.27 16.6 13.28 0 7.63-6.81 12.7-15.96 12.7z"/><path d="m165.27 127.48c-3.33 0-6.05-1.69-7.57-3.67h-.18v14.22h-7.1v-41.07h6.93v3.44h.06c2.33-2.8 5.71-4.02 8.38-4.02 6.53 0 11.76 4.13 11.76 11.76v7.22c0 8.1-5.64 12.12-12.28 12.12zm5.07-19.27c0-3.61-2.8-5.71-6.47-5.71-2.97 0-6.35 1.98-6.35 6.29v6.93c0 3.61 2.91 5.77 6.59 5.77 2.96 0 6.23-1.58 6.23-5.88v-7.39z"/><path d="m180.57 126.78v-29.82h7.1v29.82z"/><path d="m208.72 102.89c-.69 0-1.98.12-2.68.3-4.31 1.11-6.69 3.73-6.69 8.32v15.27h-7.11v-29.82h6.93v4.95h.12c1.75-3.15 6.17-5.53 9.73-5.53.75 0 1.62 0 2.38.17v6.52c-.93-.18-1.69-.18-2.68-.18z"/><path d="m214.84 126.78v-29.82h7.1v29.82z"/><path d="m180.57 87.44h7.1v6.35h-7.1z"/><path d="m214.84 87.44h7.1v6.35h-7.1z"/><path d="m12.37 24.77c-6.83 0-12.37-5.55-12.37-12.39s5.54-12.38 12.37-12.38 12.38 5.54 12.38 12.38-5.54 12.39-12.38 12.39z" fill="#fac529"/><path d="m12.37 222.84c-6.83 0-12.37-5.55-12.37-12.39s5.54-12.38 12.37-12.38 12.38 5.55 12.38 12.38-5.54 12.39-12.38 12.39z" fill="#9edfec"/><path d="m209.94 24.77c-6.84 0-12.37-5.55-12.37-12.39s5.53-12.38 12.37-12.38 12.37 5.54 12.37 12.38-5.54 12.39-12.37 12.39z" fill="#dd5935"/><path d="m209.94 222.84c-6.84 0-12.37-5.55-12.37-12.39s5.53-12.38 12.37-12.38 12.37 5.55 12.37 12.38-5.54 12.39-12.37 12.39z" fill="#899ca3"/></svg>